<svg width="100" height="100" viewBox="0 0 100 100" xmlns="http://www.w3.org/2000/svg">
  <!-- Background -->
  <rect width="100" height="100" fill="#1a3a38" rx="20"/>

  <!-- Simplified infinity symbol optimized for small sizes -->
  <path d="M25,50 Q15,35 30,35 Q40,35 40,45 Q40,55 50,55 Q60,55 70,45 Q70,35 80,35 Q95,35 85,50 Q95,65 80,65 Q70,65 70,55 Q70,45 60,45 Q50,45 40,55 Q40,65 30,65 Q15,65 25,50"
        fill="none"
        stroke="#b8936c"
        stroke-width="4"
        stroke-linecap="round"
        stroke-linejoin="round"/>

  <!-- Star -->
  <path d="M50,15 L52,20 L57,20 L53,23 L55,28 L50,25 L45,28 L47,23 L43,20 L48,20 Z"
        fill="#b8936c"/>

  <!-- Letter 'e' for small display -->
  <text x="50" y="85" font-family="'Playfair Display', serif" font-size="28" font-weight="700" fill="#b8936c" text-anchor="middle">e</text>
</svg>
