<svg width="400" height="300" viewBox="0 0 400 300" xmlns="http://www.w3.org/2000/svg">
  <!-- Infinity symbol with modern design -->
  <g id="infinity-star">
    <!-- Infinity symbol -->
    <path d="M80,150 Q40,90 100,90 Q140,90 140,130 Q140,170 180,170 Q220,170 260,130 Q260,90 300,90 Q360,90 320,150 Q360,210 300,210 Q260,210 260,170 Q260,130 220,130 Q180,130 140,170 Q140,210 100,210 Q40,210 80,150"
          fill="none"
          stroke="#b8936c"
          stroke-width="8"
          stroke-linecap="round"
          stroke-linejoin="round"/>

    <!-- Star on top -->
    <path d="M200,40 L208,60 L230,60 L212,72 L220,92 L200,80 L180,92 L188,72 L170,60 L192,60 Z"
          fill="#b8936c"/>
  </g>

  <!-- Text -->
  <text x="200" y="200" font-family="'Playfair Display', serif" font-size="72" font-weight="700" fill="#b8936c" text-anchor="middle">empírica</text>
  <text x="200" y="235" font-family="'Poppins', sans-serif" font-size="24" font-weight="300" fill="#b8936c" text-anchor="middle" letter-spacing="8">LEGAL LAB</text>
</svg>
